<svg xmlns="http://www.w3.org/2000/svg" width="52" height="52" viewBox="0 0 52 52" version="1.1"><path d="M 0 4.017 L 0 8.033 26.250 7.767 L 52.500 7.500 52.810 3.750 L 53.121 0 26.560 0 L 0 0 0 4.017 M 0.252 4.500 C 0.263 6.700, 0.468 7.482, 0.707 6.238 C 0.946 4.994, 0.937 3.194, 0.687 2.238 C 0.437 1.282, 0.241 2.300, 0.252 4.500 M 0 21.048 L 0 25.033 26.250 24.767 L 52.500 24.500 52.796 20.500 L 53.092 16.500 26.546 16.782 L 0 17.064 0 21.048 M 0.272 21 C 0.272 23.475, 0.467 24.488, 0.706 23.250 C 0.944 22.012, 0.944 19.988, 0.706 18.750 C 0.467 17.512, 0.272 18.525, 0.272 21 M 0 35.048 L 0 39.033 26.250 38.767 L 52.500 38.500 52.796 34.500 L 53.092 30.500 26.546 30.782 L 0 31.064 0 35.048 M 0.272 35 C 0.272 37.475, 0.467 38.487, 0.706 37.250 C 0.944 36.013, 0.944 33.987, 0.706 32.750 C 0.467 31.512, 0.272 32.525, 0.272 35 M 0 48.048 L 0 52.033 26.250 51.767 L 52.500 51.500 52.796 47.500 L 53.092 43.500 26.546 43.782 L 0 44.064 0 48.048 M 0.272 48 C 0.272 50.475, 0.467 51.487, 0.706 50.250 C 0.944 49.013, 0.944 46.987, 0.706 45.750 C 0.467 44.513, 0.272 45.525, 0.272 48" stroke="none" fill="#fffcfc" fill-rule="evenodd"/><path d="M 0 4.017 L 0 8.033 26.250 7.767 L 52.500 7.500 52.810 3.750 L 53.121 0 26.560 0 L 0 0 0 4.017 M 0.252 4.500 C 0.263 6.700, 0.468 7.482, 0.707 6.238 C 0.946 4.994, 0.937 3.194, 0.687 2.238 C 0.437 1.282, 0.241 2.300, 0.252 4.500 M 0 21.048 L 0 25.033 26.250 24.767 L 52.500 24.500 52.796 20.500 L 53.092 16.500 26.546 16.782 L 0 17.064 0 21.048 M 0.272 21 C 0.272 23.475, 0.467 24.488, 0.706 23.250 C 0.944 22.012, 0.944 19.988, 0.706 18.750 C 0.467 17.512, 0.272 18.525, 0.272 21 M 0 35.048 L 0 39.033 26.250 38.767 L 52.500 38.500 52.796 34.500 L 53.092 30.500 26.546 30.782 L 0 31.064 0 35.048 M 0.272 35 C 0.272 37.475, 0.467 38.487, 0.706 37.250 C 0.944 36.013, 0.944 33.987, 0.706 32.750 C 0.467 31.512, 0.272 32.525, 0.272 35 M 0 48.048 L 0 52.033 26.250 51.767 L 52.500 51.500 52.796 47.500 L 53.092 43.500 26.546 43.782 L 0 44.064 0 48.048 M 0.272 48 C 0.272 50.475, 0.467 51.487, 0.706 50.250 C 0.944 49.013, 0.944 46.987, 0.706 45.750 C 0.467 44.513, 0.272 45.525, 0.272 48" stroke="none" fill="#fffcfc" fill-rule="evenodd"/><path d="M 0 4.017 L 0 8.033 26.250 7.767 L 52.500 7.500 52.810 3.750 L 53.121 0 26.560 0 L 0 0 0 4.017 M 0.252 4.500 C 0.263 6.700, 0.468 7.482, 0.707 6.238 C 0.946 4.994, 0.937 3.194, 0.687 2.238 C 0.437 1.282, 0.241 2.300, 0.252 4.500 M 0 21.048 L 0 25.033 26.250 24.767 L 52.500 24.500 52.796 20.500 L 53.092 16.500 26.546 16.782 L 0 17.064 0 21.048 M 0.272 21 C 0.272 23.475, 0.467 24.488, 0.706 23.250 C 0.944 22.012, 0.944 19.988, 0.706 18.750 C 0.467 17.512, 0.272 18.525, 0.272 21 M 0 35.048 L 0 39.033 26.250 38.767 L 52.500 38.500 52.796 34.500 L 53.092 30.500 26.546 30.782 L 0 31.064 0 35.048 M 0.272 35 C 0.272 37.475, 0.467 38.487, 0.706 37.250 C 0.944 36.013, 0.944 33.987, 0.706 32.750 C 0.467 31.512, 0.272 32.525, 0.272 35 M 0 48.048 L 0 52.033 26.250 51.767 L 52.500 51.500 52.796 47.500 L 53.092 43.500 26.546 43.782 L 0 44.064 0 48.048 M 0.272 48 C 0.272 50.475, 0.467 51.487, 0.706 50.250 C 0.944 49.013, 0.944 46.987, 0.706 45.750 C 0.467 44.513, 0.272 45.525, 0.272 48" stroke="none" fill="#fffcfc" fill-rule="evenodd"/><path d="M 0 4.017 L 0 8.033 26.250 7.767 L 52.500 7.500 52.810 3.750 L 53.121 0 26.560 0 L 0 0 0 4.017 M 0.252 4.500 C 0.263 6.700, 0.468 7.482, 0.707 6.238 C 0.946 4.994, 0.937 3.194, 0.687 2.238 C 0.437 1.282, 0.241 2.300, 0.252 4.500 M 0 21.048 L 0 25.033 26.250 24.767 L 52.500 24.500 52.796 20.500 L 53.092 16.500 26.546 16.782 L 0 17.064 0 21.048 M 0.272 21 C 0.272 23.475, 0.467 24.488, 0.706 23.250 C 0.944 22.012, 0.944 19.988, 0.706 18.750 C 0.467 17.512, 0.272 18.525, 0.272 21 M 0 35.048 L 0 39.033 26.250 38.767 L 52.500 38.500 52.796 34.500 L 53.092 30.500 26.546 30.782 L 0 31.064 0 35.048 M 0.272 35 C 0.272 37.475, 0.467 38.487, 0.706 37.250 C 0.944 36.013, 0.944 33.987, 0.706 32.750 C 0.467 31.512, 0.272 32.525, 0.272 35 M 0 48.048 L 0 52.033 26.250 51.767 L 52.500 51.500 52.796 47.500 L 53.092 43.500 26.546 43.782 L 0 44.064 0 48.048 M 0.272 48 C 0.272 50.475, 0.467 51.487, 0.706 50.250 C 0.944 49.013, 0.944 46.987, 0.706 45.750 C 0.467 44.513, 0.272 45.525, 0.272 48" stroke="none" fill="#fffcfc" fill-rule="evenodd"/><path d="M 0 4.017 L 0 8.033 26.250 7.767 L 52.500 7.500 52.810 3.750 L 53.121 0 26.560 0 L 0 0 0 4.017 M 0.252 4.500 C 0.263 6.700, 0.468 7.482, 0.707 6.238 C 0.946 4.994, 0.937 3.194, 0.687 2.238 C 0.437 1.282, 0.241 2.300, 0.252 4.500 M 0 21.048 L 0 25.033 26.250 24.767 L 52.500 24.500 52.796 20.500 L 53.092 16.500 26.546 16.782 L 0 17.064 0 21.048 M 0.272 21 C 0.272 23.475, 0.467 24.488, 0.706 23.250 C 0.944 22.012, 0.944 19.988, 0.706 18.750 C 0.467 17.512, 0.272 18.525, 0.272 21 M 0 35.048 L 0 39.033 26.250 38.767 L 52.500 38.500 52.796 34.500 L 53.092 30.500 26.546 30.782 L 0 31.064 0 35.048 M 0.272 35 C 0.272 37.475, 0.467 38.487, 0.706 37.250 C 0.944 36.013, 0.944 33.987, 0.706 32.750 C 0.467 31.512, 0.272 32.525, 0.272 35 M 0 48.048 L 0 52.033 26.250 51.767 L 52.500 51.500 52.796 47.500 L 53.092 43.500 26.546 43.782 L 0 44.064 0 48.048 M 0.272 48 C 0.272 50.475, 0.467 51.487, 0.706 50.250 C 0.944 49.013, 0.944 46.987, 0.706 45.750 C 0.467 44.513, 0.272 45.525, 0.272 48" stroke="none" fill="#fffcfc" fill-rule="evenodd"/><path d="" stroke="none" fill="#fcfcfc" fill-rule="evenodd"/></svg>